<?xml version="1.0" encoding="utf-8"?>
<!DOCTYPE svg PUBLIC "-//W3C//DTD SVG 1.0//EN" "http://www.w3.org/TR/2001/REC-SVG-20010904/DTD/svg10.dtd">
<svg version="1.0" xmlns="http://www.w3.org/2000/svg" width="1024px" height="1024px" viewBox="0 0 1024 1024" preserveAspectRatio="xMidYMid meet">
 <g fill="#444cae">
  <path d="M192 908.5 c-0.8 -0.2 -5 -0.9 -9.2 -1.6 -4.8 -0.7 -7.5 -1.6 -7.1 -2.2 0.3 -0.6 0.1 -0.7 -0.6 -0.3 -2 1.3 -19.5 -5 -18.5 -6.6 0.4 -0.6 0.2 -0.8 -0.4 -0.4 -1.3 0.8 -6.3 -1.4 -5.7 -2.5 0.3 -0.4 0 -1.1 -0.6 -1.5 -0.8 -0.4 -0.9 -0.3 -0.5 0.4 0.9 1.5 0.1 1.5 -2.5 0.1 -1.1 -0.5 -1.7 -1.4 -1.4 -1.8 0.2 -0.5 -0.3 -0.8 -1.2 -0.7 -1 0 -1.8 -0.5 -1.8 -1.3 0 -0.8 -0.7 -1.6 -1.5 -1.8 -1.3 -0.4 -1.3 -0.3 0 0.6 0.8 0.6 1.1 1.1 0.6 1.1 -1.8 0 -11.7 -8.2 -13.8 -11.3 -1.1 -1.8 -1.7 -2.3 -1.4 -1.3 0.5 1.6 0.4 1.7 -0.9 0.6 -0.8 -0.7 -1.2 -1.7 -0.8 -2.3 0.3 -0.5 0.1 -0.7 -0.5 -0.3 -0.6 0.3 -1.9 -0.6 -3 -2.1 -1.1 -1.6 -3.7 -4.6 -5.8 -6.8 -5.4 -5.7 -12.7 -17.3 -12 -19.1 0.3 -0.8 0.2 -1.2 -0.4 -0.9 -1.6 1 -10.4 -19.7 -9.7 -22.7 0.3 -1 0.1 -1.6 -0.3 -1.3 -0.9 0.6 -3.5 -10 -4.6 -19 -1.1 -9.6 -1.1 -198.5 0.1 -198.5 0.6 0 0.6 -0.3 0 -0.8 -1.6 -1.1 -1.2 -396.7 0.4 -405.2 2.3 -12.1 3.2 -14.9 5.2 -15.5 1.1 -0.4 1.6 -1.1 1.3 -1.7 -0.4 -0.6 -1 -0.5 -1.6 0.3 -1.3 2 -0.1 -2.3 2.7 -9.2 2.3 -5.8 9.1 -17.9 12 -21.4 0.9 -1.1 1.3 -1.4 0.9 -0.6 -0.5 0.9 -0.3 1.2 0.5 0.7 0.6 -0.4 0.9 -1.2 0.5 -1.7 -0.8 -1.4 6.5 -10.1 7.8 -9.3 0.6 0.4 0.8 0.3 0.5 -0.3 -0.8 -1.3 4.7 -6.6 5.8 -5.6 0.4 0.5 0.5 0.3 0.2 -0.4 -0.7 -1 8.1 -9.3 9.9 -9.3 0.4 0 -0.1 0.7 -1.2 1.6 -1.8 1.4 -1.8 1.5 0.4 0.4 1.2 -0.6 2 -1.5 1.7 -1.9 -0.7 -1.2 7.4 -6.2 17.5 -10.9 10.1 -4.7 13.5 -5.9 12.6 -4.3 -0.4 0.6 -0.1 1.1 0.8 1.1 1.9 0 3 -1.7 1.5 -2.2 -0.7 -0.2 1.9 -1.3 5.7 -2.3 6.7 -1.9 14 -2 333.4 -2.3 230.4 -0.2 328.4 0.1 333 0.8 3.6 0.6 9.2 1.8 12.4 2.7 4.6 1.3 5.5 1.8 4 2.4 -2 0.8 -2.3 0.7 5.1 1.4 1.1 0.1 2.6 0.3 3.3 0.4 0.7 0 1 0.5 0.7 1.1 -0.3 0.5 0 0.7 0.8 0.4 1.9 -0.7 12 4.3 11.2 5.6 -0.3 0.5 0.3 0.8 1.2 0.7 2.4 -0.1 7.4 3.3 6.7 4.5 -0.3 0.5 0.2 0.8 1.2 0.6 1.1 -0.2 1.9 0.3 1.9 1.2 0 0.8 0.8 1.4 1.8 1.4 0.9 -0.1 3.6 1.6 5.9 3.8 2.4 2.2 3.7 3.6 2.9 3.2 -1 -0.5 -1.2 -0.3 -0.7 0.5 0.5 0.7 1.4 1 2.1 0.7 1.3 -0.4 3.3 1.3 5 4.3 0.5 0.9 0.4 1.2 -0.2 0.8 -0.5 -0.3 -1 0 -1 0.8 0 0.8 0.4 1.2 0.9 0.9 0.4 -0.3 0.8 0 0.8 0.6 0 0.7 0.6 1 1.4 0.7 1.9 -0.8 5.8 3.6 5 5.6 -0.3 1 -0.1 1.7 0.6 1.7 0.6 0 0.8 -0.5 0.4 -1.2 -0.4 -0.6 -0.3 -0.9 0.2 -0.5 0.5 0.3 3.1 3.9 5.7 8 3.1 4.9 4.5 8.1 4.1 9.3 -0.4 1.3 -0.3 1.5 0.3 0.6 0.7 -0.8 1.9 1.2 4.1 6.5 3.4 8.3 3.8 9.8 2.2 8.8 -0.6 -0.3 -0.7 0.1 -0.4 0.9 0.3 0.9 1 1.4 1.4 1.1 0.5 -0.3 1.6 2.5 2.6 6.2 1.8 6.5 1.9 21.4 2.1 310.1 0.3 298 0.3 303.5 -1.6 312.9 -1.1 5.3 -2.4 9.9 -2.8 10.2 -0.4 0.3 -0.8 1.2 -0.9 1.9 -0.4 4.8 -0.4 4.8 -1.5 3.2 -0.9 -1.2 -1 -1.2 -0.5 0.4 0.7 2.1 -2.2 10.6 -3.6 10.6 -0.5 0 -0.7 0.4 -0.4 0.8 1.3 2.2 -16.5 28.9 -18.4 27.7 -0.5 -0.3 -1.2 0 -1.6 0.6 -0.4 0.8 -0.3 0.9 0.4 0.5 2.1 -1.3 1.2 0.6 -1.4 3.1 -1.4 1.3 -2.9 2.1 -3.3 1.8 -0.5 -0.2 -1.7 0.5 -2.7 1.8 l-1.9 2.2 2.5 -1.9 c1.4 -1.1 0.6 0 -1.8 2.3 -2.4 2.4 -4.7 3.9 -5.4 3.5 -0.6 -0.4 -0.8 -0.3 -0.5 0.3 0.9 1.4 -6 6.6 -7.5 5.7 -0.7 -0.4 -0.8 -0.3 -0.4 0.4 0.8 1.4 -3 3.6 -4.6 2.6 -0.7 -0.4 -0.8 -0.3 -0.4 0.4 0.8 1.4 -3 3.6 -4.6 2.6 -0.6 -0.4 -0.8 -0.3 -0.5 0.3 1.3 2.1 -22.5 10.9 -26.5 9.8 -1.6 -0.4 -1.9 -0.4 -0.9 0.3 1.6 1.2 -11.6 3.7 -15.5 2.9 -1.3 -0.2 -2.4 0 -2.4 0.4 0 0.8 -631.2 1.1 -635 0.4z m642 -25.9 c37 -8.9 64.8 -35.7 74.8 -72.2 l2.7 -9.9 0.3 -290 c0.2 -198.6 0 -292.9 -0.8 -299.2 -1.1 -10 -4.8 -22.9 -8.7 -30.8 -10.1 -20.1 -28.3 -36.6 -49.7 -45.1 -17.6 -7 10.5 -6.5 -344.6 -6.2 -303.3 0.3 -320.8 0.4 -326.5 2.1 -9 2.6 -24 10.2 -31.7 15.9 -13.8 10.2 -25.6 26 -31.3 41.8 -5.8 16.4 -5.5 -3.4 -5.5 314.5 0 311.8 -0.2 299.7 4.6 314.2 5.1 15.7 17.5 34.2 29.3 43.9 15.2 12.5 34.3 20.7 52.1 22.4 4.1 0.4 147 0.7 317.5 0.6 295.4 -0.2 310.4 -0.2 317.5 -2z"/>
  <path d="M223.3 825.6 c-13.1 -4.2 -22.4 -14.3 -25.2 -27.6 -0.9 -4.1 -1.1 -56.5 -0.9 -211 l0.3 -205.5 2.9 -6.3 c2 -4.3 4.7 -8 8.8 -11.7 9 -8.4 9.7 -8.5 52.3 -8.5 l36.1 0 1.8 -4 c2.3 -5.3 7.8 -9.7 13.8 -11 2.7 -0.5 14.3 -1 25.8 -1 l20.9 0 1.1 -5.7 c1.8 -8.8 5.9 -16.2 12.5 -22.9 9.3 -9.4 19.8 -13.4 35 -13.4 15.1 0 25.6 4.1 35.1 13.5 6.6 6.5 10.4 13.6 12.4 22.7 l1.3 5.6 24.6 0.4 24.6 0.3 4.7 2.7 c3.3 2 5.3 4.1 7 7.5 l2.3 4.8 38 0.3 38 0.3 6.2 3 c8.5 4.1 14.7 11.1 17.3 19.6 1.9 6.1 2 9.3 2 50.9 0 36.4 0.2 44.4 1.3 44.4 0.8 0 5.8 -0.7 11.3 -1.5 13.1 -2 40.6 -2 54 0 49.4 7.4 93.1 37.1 117.9 80.3 22.8 39.8 27.7 92.3 12.8 137.4 -17.7 53.5 -65.4 96.5 -120.8 108.7 -20.8 4.6 -48.4 5.2 -68 1.6 -4.4 -0.8 -8.1 -1.5 -8.2 -1.5 -0.2 0 -0.3 0.7 -0.3 1.6 0 3.2 -6.5 13.6 -10.9 17.6 -2.5 2.2 -7.1 5.3 -10.1 6.7 l-5.5 2.6 -184 0.2 c-150.2 0.1 -184.8 -0.1 -188.2 -1.1z m360.8 -36.4 l3.2 -2.8 -5.5 -2.7 c-17.7 -8.6 -40.9 -28 -54.4 -45.4 -17.8 -22.7 -29.8 -51.6 -33.4 -80.5 -1.9 -14.7 -0.8 -46.7 1.9 -59.1 10 -46.4 38.4 -84.5 80.7 -108.3 l10.4 -5.9 0 -44.1 c0 -43.1 0 -44.2 -2.1 -46.8 l-2 -2.6 -31.5 0 -31.4 0 0 4.3 c0 10 -5.1 18.9 -13.3 23.4 -3 1.7 -9.6 1.8 -97.7 1.8 l-94.5 0 -4.2 -2.2 c-8 -4.3 -12.3 -12 -12.3 -22.2 l0 -5.1 -31.5 0 -31.5 0 -2 3.3 c-2 3.2 -2 5.6 -2 197.4 l0 194.1 2.6 3.1 2.6 3.1 172.4 0 172.4 0 3.1 -2.8z m97.9 -17.8 c10.4 -1.8 29.4 -8 38.7 -12.7 26.3 -13.3 50.9 -37.9 64.1 -64.2 18.8 -37.7 19.3 -77.2 1.3 -116.8 -14.8 -32.6 -46.8 -60.3 -83.8 -72.7 -35.3 -11.7 -69 -9.3 -102.8 7.5 -36.7 18.2 -62.8 49.2 -73.9 87.7 -13 45.2 1 95.9 36.3 130.9 25.7 25.4 51.9 37.9 89.1 42.3 5.5 0.6 21.7 -0.4 31 -2z m-265.9 -419.2 c3.1 -2.8 4.2 -4.7 4.6 -7.8 0.5 -3.6 0.1 -4.5 -2.8 -7.9 -4.3 -4.8 -8.3 -6.6 -12.1 -5.3 -3.3 1.2 -8.5 6.9 -9.4 10.3 -0.8 3.4 2.4 9.5 6.5 12.2 5 3.4 8.5 3 13.2 -1.5z"/>
  <path d="M285 696.3 c-2.3 -0.8 -20.9 -19.4 -22.6 -22.5 -3 -5.7 -1 -16.3 3.5 -18.8 1.1 -0.5 4.9 -1 8.5 -1 6.3 0 6.5 0.1 11.9 5 3 2.8 5.7 4.6 5.9 4.1 0.1 -0.5 6.6 -8 14.3 -16.6 8.7 -9.8 15.2 -16.3 17.2 -17.1 6.8 -2.9 16.5 -0.7 18.3 4.1 0.6 1.5 1 5.3 1 8.5 l0 5.8 -21.1 23.6 c-11.6 13.1 -22.2 24.1 -23.5 24.7 -2.7 1 -10.9 1.1 -13.4 0.2z"/>
  <path d="M366 670.7 c-6.6 -3.3 -8.1 -16.9 -2.5 -22.7 l2.9 -3 51.4 0 51.4 0 2.9 2.9 c2.7 2.7 2.9 3.5 2.9 10 0 6.4 -0.3 7.4 -2.9 10.3 l-2.9 3.3 -50.4 0.2 c-38.9 0.2 -50.9 0 -52.8 -1z"/>
  <path d="M284.5 607.6 c-3 -1.4 -18.8 -16.9 -21.9 -21.6 -1 -1.6 -1.6 -4.5 -1.6 -8.3 0 -5.1 0.4 -6.2 2.9 -8.8 2.7 -2.7 3.5 -2.9 10.1 -2.9 7.1 0 7.1 0 12.1 4.7 l5.1 4.8 2.2 -2.6 c8.1 -9.9 28 -31.8 29.3 -32.3 0.8 -0.3 4.4 -0.6 8 -0.6 5.8 0 6.7 0.3 9.4 2.9 2.6 2.6 2.9 3.6 2.9 9.1 0 3.4 -0.5 7.1 -1.1 8.2 -2.2 4.1 -41.3 47 -43.6 47.9 -3.5 1.3 -10.3 1 -13.8 -0.5z"/>
  <path d="M366.5 583.1 c-4 -1.7 -5.9 -5 -6.3 -11.1 -0.5 -7.2 1 -11.6 4.9 -13.5 3.8 -2 111.9 -2.2 115.9 -0.2 7.8 3.9 7.8 20 0 23.9 -3.2 1.7 -8 1.8 -58 1.7 -30 0 -55.4 -0.4 -56.5 -0.8z"/>
  <path d="M283 517.7 c-0.9 -0.7 -6.2 -6 -11.8 -11.9 l-10.2 -10.7 0 -6.1 c0 -5.5 0.3 -6.5 2.9 -9.1 2.7 -2.7 3.5 -2.9 10.1 -2.9 l7.1 0 5.1 4.8 5.1 4.9 10.6 -12.1 c5.8 -6.7 13.1 -14.7 16.1 -17.8 l5.6 -5.8 6.6 0 c5.7 0 7.1 0.4 9.7 2.6 2.9 2.4 3.1 3 3.1 9.9 l0 7.3 -21.5 24.1 -21.6 24.1 -7.7 0 c-4.5 -0.1 -8.3 -0.6 -9.2 -1.3z"/>
  <path d="M363.1 491.6 c-4.3 -4.6 -4 -16.8 0.4 -21.2 l2.4 -2.4 89.5 0 89.4 0 3.1 2.5 c5.3 4.6 5.2 18.2 -0.2 22 -1.9 1.3 -13.7 1.5 -92.2 1.5 l-90.2 0 -2.2 -2.4z"/>
  <path d="M600.5 748.1 c-4.8 -1.2 -7.4 -2.9 -9.2 -6.4 -1.6 -2.8 -1.8 -6.8 -2.1 -32.6 -0.3 -31.5 -0.1 -33.5 4.6 -37.1 2.4 -1.9 4.3 -2 52 -2 l49.5 0 3.4 3.6 3.4 3.6 -0.3 31.8 -0.3 31.8 -2.5 2.7 c-5 5.5 -5.4 5.5 -52.2 5.4 -23.8 -0.1 -44.6 -0.4 -46.3 -0.8z"/>
  <path d="M726.9 736.7 c-3 -1.8 -9.3 -5.9 -14.1 -9.2 l-8.8 -5.8 0 -12.7 0 -12.8 12.8 -8.2 c7 -4.6 13.7 -8.9 14.9 -9.6 3 -1.9 10.3 -1.8 13.1 0.2 2.2 1.5 2.2 1.7 2.2 29.9 0 28.2 0 28.4 -2.2 29.9 -4 2.8 -11.7 2.1 -17.9 -1.7z"/>
  <path d="M552 659.1 c-3.4 -6.4 0.6 -19.9 7.8 -26.2 6.6 -5.9 9.9 -6.6 30.5 -7.4 l18.7 -0.7 0 3.2 c0 1.8 -0.6 5.8 -1.4 8.9 -0.8 3.1 -1.8 8.3 -2.1 11.6 -1.4 12.7 -0.9 12.5 -29.9 12.5 -21.3 0 -22.6 -0.1 -23.6 -1.9z"/>
  <path d="M609.7 656.3 c-1 -0.9 -0.8 -10.5 0.3 -19.2 1.9 -14.2 8.9 -24.4 21 -30.5 6.2 -3 8 -3.5 18.2 -4.1 15.4 -0.9 34.1 0.7 40.1 3.3 2.6 1.2 7.1 4.4 10.1 7.2 8.9 8.4 12.6 18.6 12.6 35 l0 9 -50.8 0 c-28 0 -51.2 -0.3 -51.5 -0.7z"/>
  <path d="M715.7 649.1 c-0.3 -4.3 -1.3 -9.8 -2.1 -12.2 -0.9 -2.4 -1.6 -6.1 -1.6 -8.1 l0 -3.7 18.3 0.6 c14.1 0.4 19.1 0.9 22.3 2.3 9.7 4.1 16.4 13.8 16.4 23.8 l0 5.2 -26.4 0 -26.3 0 -0.6 -7.9z"/>
  <path d="M578.7 622.9 c-5.3 -1.2 -8.7 -3.2 -12.4 -7.1 -5 -5.2 -6.3 -9.4 -6.3 -20.5 0 -9 0.3 -10.2 2.9 -14.8 3.1 -5.4 8.7 -9.9 14.2 -11.5 4.7 -1.4 16.3 -1.2 21.3 0.2 5.5 1.6 13.8 9.9 15.4 15.4 0.7 2.3 1.2 7.7 1.2 12.1 0 6.5 -0.5 8.8 -2.6 13.2 -5.5 11 -19.4 16.4 -33.7 13z"/>
  <path d="M722.2 622.2 c-10.8 -3.9 -16.2 -12.4 -16.2 -25.7 0 -11.4 1.3 -15.1 7.4 -21.1 3.3 -3.4 6.5 -5.6 9.1 -6.3 5.2 -1.4 16.7 -1.4 21.6 0.1 5.1 1.5 11.4 7 14.1 12.2 2.6 5 3.6 18 1.9 24.3 -1.6 5.9 -6.8 12.3 -12.4 15.2 -6.6 3.4 -18 3.9 -25.5 1.3z"/>
  <path d="M649.2 598.4 c-7.4 -1.9 -10.8 -3.9 -15.7 -9 -7.1 -7.3 -8.9 -12.1 -9.3 -24.9 -0.3 -9.4 -0.1 -11.8 1.8 -16.7 2.6 -7.1 10 -15.5 16.4 -18.6 11 -5.6 27.7 -5.1 38.3 0.9 22.8 13.1 23.1 51.4 0.6 64.6 -8.7 5 -21.6 6.6 -32.1 3.7z"/>
  <path d="M739.5 278.2 c-13.6 -4.7 -20.5 -15.4 -22.5 -35 -2.8 -26.7 4.2 -46 19.5 -54 4.3 -2.2 6.6 -2.7 15.6 -3 14.7 -0.6 20.4 1.1 27.4 8.1 6.4 6.4 8.7 12.6 8.3 21.9 l-0.3 6.3 -11 0 -10.9 0 -1.2 -4 c-2.6 -9.4 -10.7 -12.4 -16.9 -6.2 -8.1 8.1 -8.9 31.9 -1.5 40.9 7.1 8.7 16.3 5.5 18.5 -6.4 0.9 -4.5 2.7 -5.1 15 -4.6 l8 0.3 0.3 6.3 c0.5 9.9 -1.9 16.4 -8.2 22.7 -4 4 -6.7 5.7 -10.6 6.9 -7.4 2.2 -22.9 2.1 -29.5 -0.2z"/>
  <path d="M165.3 278.3 c-3.9 -0.8 -3.1 -7.8 3.6 -29 3.3 -10.3 8.9 -28.2 12.5 -39.7 3.5 -11.5 7.1 -21.3 7.8 -21.7 1.5 -1 20.8 -1.2 23.2 -0.3 0.8 0.3 2.4 3.3 3.5 6.7 1.1 3.4 5.7 17.7 10.1 31.7 4.5 14 9.5 29.6 11.1 34.5 3.1 9.6 3.7 15.3 1.7 17.3 -0.8 0.8 -4.8 1.2 -11.5 1.2 -11.7 0 -10.6 0.9 -14 -10.5 l-1.8 -6 -10.1 -0.3 -10.1 -0.3 -1.8 6.3 c-3.1 10.8 -3.2 10.8 -13.3 10.7 -4.8 -0.1 -9.7 -0.4 -10.9 -0.6z m40 -37 c0.5 -1 -3.4 -15.3 -4.2 -15.3 -0.4 0 -1.5 3 -2.5 6.8 -1 3.7 -2 7.3 -2.3 8 -0.3 0.8 0.8 1.2 4.1 1.2 2.4 0 4.7 -0.3 4.9 -0.7z"/>
  <path d="M250.8 278.3 c-1 -0.2 -1.8 -1 -1.9 -1.6 -0.1 -0.7 0 -14.7 0.1 -31.2 0.1 -16.5 -0.1 -31.2 -0.5 -32.7 -0.7 -2.7 -0.8 -2.7 -9.8 -3 l-9.2 -0.3 -0.3 -9.9 c-0.2 -6.4 0.1 -10.3 0.9 -11.2 0.9 -1.1 6.5 -1.4 30 -1.4 28.6 0 28.8 0 30.3 2.2 1.2 1.7 1.6 1.9 1.6 0.6 0 -0.9 0.7 -1.9 1.6 -2.2 2.6 -1 56.8 -0.7 58.4 0.4 2 1.2 2.8 18.3 1 20.5 -0.9 1.1 -3.5 1.5 -10.1 1.5 l-8.9 0 0 33.3 c0 24.6 -0.3 33.6 -1.2 34.5 -0.8 0.8 -4.7 1.2 -10.8 1.2 -6.1 0 -10 -0.4 -10.8 -1.2 -0.9 -0.9 -1.2 -9.9 -1.2 -34.5 l0 -33.3 -8.5 0 c-6.7 0 -8.6 -0.3 -9.3 -1.6 -0.8 -1.5 -1 -1.5 -1.5 0 -0.5 1.3 -2.2 1.6 -9.2 1.6 l-8.5 0 -0.1 24.3 c0 13.3 -0.1 28 0 32.6 0.1 12 0 12.1 -11.2 12 -5.1 -0.1 -10 -0.3 -10.9 -0.6z"/>
  <path d="M358.2 277.8 c-1.7 -1.7 -1.8 -87.8 0 -89.6 1.9 -1.9 49.1 -1.7 50.7 0.2 0.8 0.9 1.1 4.8 0.9 11.2 l-0.3 9.9 -14.7 0.3 -14.8 0.3 0 5.9 0 5.9 13.8 0.3 13.7 0.3 0.3 9.4 c0.2 6 -0.1 9.8 -0.9 10.7 -0.9 1.1 -4.2 1.4 -14 1.4 l-12.9 0 0 6 0 6 14.4 0 c11.4 0 14.6 0.3 15.6 1.5 1.4 1.6 1.1 18.7 -0.3 20.2 -0.5 0.4 -12 0.9 -25.5 1.1 -18.7 0.2 -25 0 -26 -1z"/>
  <path d="M418.8 277.9 c-1.7 -0.9 -1.8 -4.1 -1.8 -44.7 0 -32.7 0.3 -44.1 1.2 -45 0.8 -0.8 4.7 -1.2 10.9 -1.2 9.1 0 9.9 0.2 11.6 2.4 1 1.3 6.3 10.7 11.8 20.9 l10 18.5 0.3 -19.6 c0.2 -13.1 0.6 -20 1.4 -21 0.9 -1 3.4 -1.3 10.4 -1 5.1 0.1 9.6 0.7 10.1 1.1 1 1.1 1.1 88.3 0 89.3 -1 1 -17.9 1.8 -21.1 1 -2 -0.5 -4.5 -4.5 -13.3 -21.1 l-10.8 -20.4 -0.5 20.7 -0.5 20.7 -9 0.2 c-4.9 0.2 -9.8 -0.2 -10.7 -0.8z"/>
  <path d="M493.5 278 c-1.3 -2.1 -0.6 -88.2 0.8 -89.8 0.9 -1.2 5 -1.3 21.7 -1 24 0.5 28.7 1.7 36.5 9.4 7.9 7.6 11.5 19.2 11.5 37 0 23.1 -7.7 37.4 -23.2 43 -5.9 2.2 -46.1 3.3 -47.3 1.4z m36.5 -23.8 c4.8 -2.4 7.6 -7.1 8.9 -15 2.9 -17 -4.7 -29.2 -18.2 -29.2 l-4.7 0 0 23 0 23 5.3 0 c3 0 6.7 -0.8 8.7 -1.8z"/>
  <path d="M564.3 278.3 c-3.9 -0.8 -3.1 -8.5 2.6 -26.4 2.7 -8.5 8.1 -26 12.1 -38.9 4 -12.9 8 -24.1 8.8 -24.7 2.2 -1.8 22.6 -1.8 24 0 1 1.2 6.7 18.1 19.2 57.6 5.7 17.9 7 23.4 6.8 27.5 l-0.3 5.1 -9.1 0.3 c-13 0.4 -13.9 -0.1 -16.5 -9.3 l-2.2 -7.6 -10.1 0.3 -10 0.3 -2.5 8 -2.6 8 -9 0.1 c-4.9 0.1 -10 0 -11.2 -0.3z m38.1 -44.5 c-1.3 -4.4 -2.5 -8.3 -2.7 -8.5 -0.4 -0.3 -4.7 14.6 -4.7 16.1 0 0.3 2.2 0.6 4.9 0.6 l4.9 0 -2.4 -8.2z"/>
  <path d="M644.8 278.3 c-1.7 -0.4 -1.8 -3.4 -1.8 -45.3 l0 -44.9 3.3 -0.6 c1.7 -0.3 6.8 -0.5 11.2 -0.3 l8 0.3 6.3 11.5 c3.5 6.3 8.4 15.5 11 20.3 l4.7 8.8 0.3 -19.3 c0.2 -16.7 0.4 -19.5 1.9 -20.5 2.1 -1.6 16.6 -1.7 19.4 -0.3 1.8 1 1.9 2.6 1.9 44.8 0 32.7 -0.3 44.1 -1.2 45 -1.7 1.7 -19.8 1.6 -22.2 -0.1 -1 -0.7 -6.2 -9.8 -11.7 -20.2 l-9.8 -19 -0.1 18.7 c0 22.6 0.4 21.9 -11.3 21.7 -4.5 -0.1 -9 -0.3 -9.9 -0.6z"/>
  <path d="M796.3 278.4 l-2.3 -0.5 0 -44.9 c0 -39.9 0.2 -44.9 1.6 -45.4 0.9 -0.3 12.6 -0.6 26 -0.6 l24.4 0 1 2.6 c0.6 1.4 1 5.4 1 8.9 0 3.5 -0.4 7.5 -1 8.9 l-1 2.6 -14.5 0 -14.5 0 0 6 0 6 13.4 0 c11.3 0 13.5 0.2 14 1.6 0.3 0.9 0.6 5.1 0.6 9.4 0 10.9 -0.1 11 -15.6 11 l-12.4 0 0 5.5 0 5.5 14.5 0 c17 0 16.5 -0.4 16.5 11.7 0 12.2 1.5 11.5 -26.1 11.9 -12.9 0.1 -24.4 0 -25.6 -0.2z"/>
 </g>
 <g fill="#cacbf4">
  <path d="M196 887 c-17.8 -1.7 -36.9 -9.9 -52.1 -22.4 -11.8 -9.7 -24.2 -28.2 -29.3 -43.9 -4.8 -14.5 -4.6 -2.1 -4.6 -317.2 0 -321.2 -0.3 -301.1 5.5 -317.5 5.7 -15.8 17.5 -31.6 31.3 -41.8 7.7 -5.7 22.7 -13.3 31.7 -15.9 5.7 -1.7 23.3 -1.8 329.5 -2.1 358.4 -0.3 330 -0.8 347.6 6.2 21.4 8.5 39.6 25 49.7 45.1 3.9 7.9 7.6 20.8 8.7 30.8 0.8 6.3 1 101.5 0.8 302.2 l-0.3 293 -2.7 9.9 c-10 36.5 -37.8 63.3 -74.8 72.2 -7.1 1.8 -22.2 1.8 -320.5 2 -172.2 0.1 -316.4 -0.2 -320.5 -0.6z m402 -66.1 c8 -3.8 14.3 -9.8 17.8 -17.1 1.7 -3.5 3.4 -7.1 3.7 -8.2 0.4 -1.3 1.1 -1.7 2.8 -1.3 22.4 5.7 49.3 5.8 73.2 0.6 47.4 -10.4 89.2 -43 111.7 -87 24.4 -48 23 -106.5 -3.7 -153.1 -25 -43.5 -68.6 -73 -118.9 -80.4 -17.5 -2.6 -50.9 -0.9 -63.7 3.1 -1.8 0.6 -1.9 -1 -1.9 -44.8 0 -42.7 -0.1 -45.9 -2 -52 -2.6 -8.5 -8.8 -15.5 -17.3 -19.7 l-6.2 -3 -38 -0.1 -38 -0.1 -2.3 -4.9 c-1.8 -3.6 -3.6 -5.6 -7 -7.7 l-4.7 -2.7 -24.6 -0.3 -24.6 -0.4 -1.3 -5.6 c-2 -9.1 -5.8 -16.2 -12.4 -22.7 -18 -18 -46.4 -18 -64.1 -0.1 -6.8 6.8 -10.7 14.2 -12.5 23.1 l-1.2 6 -20.5 -0.3 c-12 -0.2 -22.8 0.2 -25.8 0.8 -6.2 1.3 -11.7 5.6 -14.1 11 l-1.8 4 -36.1 0 c-42.6 0 -43.3 0.1 -52.3 8.5 -4.1 3.7 -6.8 7.4 -8.8 11.7 l-2.9 6.3 -0.3 202.5 c-0.2 152.2 0 203.9 0.9 208 2.8 13.3 12.1 23.4 25.2 27.6 3.4 1 37.5 1.2 185.2 1.1 l181 -0.2 5.5 -2.6z m168 -545.5 c7.5 -2.2 15.3 -10.1 17.5 -17.7 0.9 -3.1 1.5 -7.1 1.3 -8.9 -0.3 -3.2 -0.5 -3.3 -5.3 -3.6 -2.7 -0.2 -6.4 -0.1 -8.1 0.3 -2.7 0.5 -3.3 1.1 -3.9 4.3 -1 5.3 -3.4 8.9 -7.1 10.7 -8.9 4.2 -18.8 -1.6 -21.3 -12.5 -1.6 -6.8 -1.3 -23.8 0.4 -29.8 2.9 -9.5 9.2 -14.1 17.5 -12.7 5 0.8 8.9 4.7 10.4 10 l1.2 4 7.9 0 8 0 0.3 -3.3 c1 -9.9 -8.6 -22.6 -19.3 -25.8 -8.3 -2.3 -19.4 -1.6 -26 1.8 -11.1 5.8 -17.8 17 -19.3 32.3 -2 21 2.9 38.1 13.3 46.1 8 6.1 21.5 8.1 32.5 4.8z m-582.7 -1.6 c0.8 -1.3 2.2 -5.1 3.2 -8.5 l1.8 -6.3 12.9 0 c14.6 0 13 -1 16.5 10.5 l1.8 6 7.6 0.3 c5.8 0.2 7.9 -0.1 8.8 -1.2 1.3 -1.5 0.8 -3.2 -16.1 -55.6 -2.7 -8.5 -5.8 -18.3 -6.9 -21.7 -1.1 -3.4 -2.7 -6.4 -3.5 -6.7 -2.4 -0.9 -15.7 -0.7 -17.2 0.3 -0.7 0.4 -4.3 10.2 -7.8 21.7 -3.6 11.5 -9.2 29.4 -12.5 39.7 -3.2 10.4 -5.9 19.7 -5.9 20.7 0 2.1 1.9 2.7 10.2 2.9 5 0.1 5.9 -0.2 7.1 -2.1z m85.4 0.5 c0.4 -1 0.8 -16.5 0.8 -34.5 l0 -32.8 8.7 0 c7.6 0 8.9 -0.2 9.8 -1.9 1.5 -2.9 1.2 -10.4 -0.6 -12.9 -1.5 -2.2 -1.8 -2.2 -27.3 -2.2 -21 0 -26.1 0.3 -27 1.4 -0.7 0.9 -1.1 4.1 -0.9 8.3 l0.3 6.8 9.7 0.3 9.7 0.3 0.1 32.7 c0 18 0 33.2 0 33.9 0 1.5 2.2 2 9.7 2.2 5 0.1 6.4 -0.2 7 -1.6z m61.1 0.5 c0.9 -0.9 1.2 -9.9 1.2 -34.5 l0 -33.3 8.9 0 c6.6 0 9.2 -0.4 10.1 -1.5 1.7 -2 0.9 -13.3 -1.1 -14.6 -1.8 -1.1 -51 -1.1 -52.8 0 -1.9 1.2 -2.7 11.1 -1.2 14 1.1 1.9 2 2.1 9.6 2.1 l8.5 0 0 33.3 c0 24.6 0.3 33.6 1.2 34.5 0.7 0.7 4 1.2 7.8 1.2 3.8 0 7.1 -0.5 7.8 -1.2z m76.8 -0.1 c1.4 -1.4 1.7 -12.6 0.4 -14.2 -1 -1.2 -4.1 -1.5 -15.6 -1.5 l-14.4 0 0 -9.2 0 -9.3 12.8 0.3 c15.3 0.4 15.4 0.3 15 -9 l-0.3 -6.3 -13.7 -0.3 -13.8 -0.3 0 -8.9 0 -8.9 14.8 -0.3 14.7 -0.3 0.3 -6.8 c0.2 -4.2 -0.2 -7.4 -0.9 -8.3 -1.5 -1.9 -42.8 -2.1 -44.7 -0.2 -1.8 1.8 -1.7 81.9 0.1 83.7 0.9 0.9 6.5 1.1 22.9 0.9 11.9 -0.2 22 -0.6 22.4 -1.1z m28.8 0.5 c0.2 -0.4 0.6 -12.4 0.7 -26.5 0.1 -14.1 0.3 -25.7 0.5 -25.7 0.1 0 6.1 11.4 13.4 25.3 7.2 13.8 13.9 25.8 14.8 26.5 1.8 1.4 15.5 1.2 17 -0.2 0.9 -1 0.9 -82.2 -0.1 -83.2 -1.4 -1.4 -12.6 -1.7 -14.2 -0.4 -1.3 1 -1.5 5.3 -1.5 26.9 l0 25.6 -2.8 -5 c-1.6 -2.7 -7.7 -14 -13.7 -25 -5.9 -11 -11.4 -20.8 -12.3 -21.7 -1.2 -1.4 -3.1 -1.8 -8.2 -1.8 -3.8 0 -7.1 0.5 -7.8 1.2 -0.9 0.9 -1.2 11.6 -1.2 42 0 37.7 0.1 40.8 1.8 41.7 2 1.2 12.9 1.5 13.6 0.3z m102.4 -1.6 c11.1 -4 17.8 -12 21.2 -25.1 3.3 -12.8 2.1 -28.6 -2.9 -39.9 -2.8 -6.3 -10 -13 -16.9 -15.7 -4.9 -1.9 -8.3 -2.3 -23.2 -2.7 -14.5 -0.4 -17.8 -0.2 -18.8 1 -0.8 1.1 -1.2 12 -1.2 42.2 -0.1 22.3 0.2 41.2 0.6 41.8 1.1 1.7 35.7 0.4 41.2 -1.6z m46.3 -6.1 l2.5 -8 13 -0.3 13.1 -0.3 2.2 7.6 c2.5 8.9 3.9 9.8 13.5 9.3 5.3 -0.3 6.1 -0.6 6.4 -2.4 0.4 -2.8 -23.9 -79.6 -26 -82.1 -0.7 -0.9 -3.8 -1.3 -8.7 -1.3 -4.7 0 -8.3 0.5 -9.3 1.3 -0.8 0.6 -4.8 11.8 -8.8 24.7 -4 12.9 -9.4 30.4 -12.1 38.9 -2.7 8.5 -4.9 16.4 -4.9 17.7 0 2.7 1.9 3.2 10.5 3 l6 -0.1 2.6 -8z m77.4 6.9 c1.4 -1.5 1.6 -4.6 1.3 -26.5 -0.2 -13.6 -0.2 -24.7 -0.1 -24.6 0.2 0.3 5.8 11 16.7 32 5.4 10.3 10.6 19.2 11.6 19.7 2.6 1.4 14.3 1.3 15.8 -0.2 0.9 -0.9 1.2 -11.6 1.2 -42 0 -46.3 0.7 -42.8 -8.7 -42.8 -8.7 0 -8.4 -1 -8.1 27.8 0.2 13.8 0.2 25.2 0.1 25.2 -0.3 0 -5.1 -8.6 -10.6 -19 -3.1 -5.8 -8.4 -15.7 -11.9 -22 l-6.3 -11.5 -5 -0.3 c-2.7 -0.2 -6.5 -0.1 -8.2 0.3 l-3.3 0.6 0 41.9 c0 47.3 -0.9 42.7 8.7 42.9 3.6 0.1 5.7 -0.4 6.8 -1.5z m182.2 -1.1 c1.7 -2.2 1.7 -11.4 0 -13.7 -1.1 -1.6 -2.8 -1.7 -15.5 -1.4 l-14.2 0.3 0 -9 0 -9 12.3 0.3 c14.7 0.4 15.7 -0.1 15.7 -7.8 0 -8.3 0.5 -8 -14.6 -8 l-13.4 0 0 -6.7 c0 -3.8 -0.3 -7.8 -0.6 -9 l-0.6 -2.3 15.1 0 15.1 0 1 -2.6 c0.6 -1.4 1 -4 1 -5.9 0 -1.9 -0.4 -4.5 -1 -5.9 l-1 -2.6 -21.4 0 c-11.8 0 -22.1 0.3 -23 0.6 -1.4 0.5 -1.6 5.2 -1.6 42.4 l0 41.9 2.3 0.4 c1.2 0.2 11.4 0.3 22.7 0.1 18 -0.3 20.6 -0.5 21.7 -2.1z"/>
  <path d="M230.6 791.9 l-2.6 -3.1 0 -197.1 c0 -194.8 0 -197.2 2 -200.4 l2 -3.3 33.5 0 c18.4 0 33.8 -0.1 34.3 -0.2 0.4 -0.2 1 2.9 1.3 6.7 0.3 3.9 1.1 8.2 1.7 9.6 1.6 4.1 6.1 8.8 10.6 11.2 l4.1 2.2 91.5 0 c85.3 0 91.7 -0.1 94.7 -1.8 8.2 -4.5 13.3 -13.4 13.3 -23.4 l0 -4.3 34.4 0 34.5 0 2 2.6 c2.1 2.6 2.1 3.6 2.1 49.8 l0 47.1 -10.4 5.9 c-42.3 23.8 -70.8 62 -80.7 108.3 -2.7 12.6 -3.7 39.1 -1.9 53 3.6 29 15.6 57.9 33.4 80.6 13.7 17.7 37.7 37.5 54.8 45.5 7 3.3 7.5 5.7 2.4 10.8 l-3.4 3.4 -175.5 0 -175.5 0 -2.6 -3.1z m64.8 -98.8 c1.3 -0.6 11.9 -11.6 23.5 -24.7 22.2 -24.9 22.6 -25.4 20.1 -31.9 -1.4 -3.7 -7.1 -5.9 -11.6 -4.5 -3.1 1.1 -16.4 14.9 -30.9 32.3 -2.1 2.6 -4.3 4.7 -4.8 4.7 -0.5 0 -3.8 -2.7 -7.4 -6 -5.4 -5.1 -6.9 -6 -10.1 -6 -4.6 0 -7.5 1.9 -9.2 5.9 -2 5 -0.4 8 10.3 18.9 12.1 12.4 14.1 13.5 20.1 11.3z m173.7 -27.9 c4.1 -4.5 4.1 -10.2 0 -14.3 l-2.9 -2.9 -48.4 0 -48.4 0 -2.7 2.8 c-3.6 3.7 -4.2 7.8 -2 12.2 3.2 6.1 2.2 6 54.1 5.8 l47.4 -0.3 2.9 -3.3z m-173.8 -60.1 c2.3 -0.9 41.4 -43.8 43.6 -47.9 3.5 -6.5 -1.3 -14.2 -8.9 -14.2 -5 0 -4.9 -0.1 -24.4 22.3 -7.1 8.1 -13.6 14.7 -14.4 14.7 -0.9 0 -4.1 -2.5 -7.3 -5.5 -5.1 -4.9 -6.2 -5.5 -9.9 -5.5 -7.8 0 -12.5 7.8 -8.4 14 3.1 4.7 18.9 20.2 21.9 21.6 3.6 1.6 4.7 1.7 7.8 0.5z m182.7 -25.9 c5 -2.4 6.8 -8 4.3 -13.1 -1 -2 -2.9 -4.1 -4.3 -4.8 -4 -2 -106.1 -1.8 -109.9 0.2 -7.2 3.7 -6 15.9 1.9 18.8 0.8 0.3 24.7 0.6 53 0.6 47.1 0.1 51.8 -0.1 55 -1.7z m-159.5 -87.3 c21 -23.5 21.5 -24.2 21.5 -28.4 0 -3.6 -0.5 -4.8 -3.1 -6.9 -2 -1.8 -4.2 -2.6 -6.7 -2.6 -4.2 0 -6.9 2.6 -26.1 24.5 -6.2 7.2 -11.7 13.1 -12.2 13.3 -0.4 0.2 -3.7 -2.4 -7.3 -5.7 -5.8 -5.4 -7 -6.1 -10.7 -6.1 -5.2 0 -9.9 4.2 -9.9 9 0 2.6 1.7 4.9 10.2 13.8 12.9 13.5 12.4 13.1 18 13.2 l4.7 0 21.6 -24.1z m225.7 -2 c2.7 -1.4 4.7 -6.7 4.1 -10.7 -0.3 -1.9 -1.7 -4.2 -3.5 -5.7 l-3 -2.5 -86.2 0 c-95.4 0 -89.3 -0.4 -91.6 6.6 -1.4 4.2 -0.6 8.1 2.2 11.2 l2.1 2.2 86.9 0 c60.4 0 87.5 -0.3 89 -1.1z"/>
  <path d="M648 776.4 c-37.6 -4.6 -63.4 -16.8 -89.1 -42.3 -26.4 -26.2 -41.1 -61.1 -41.2 -97.6 0 -22 3 -37.7 11 -56.5 18.5 -43.2 59.6 -75.1 107.8 -83.7 12.1 -2.1 35.1 -2.1 47.5 0.1 20.3 3.6 43 13 59.1 24.6 31.3 22.3 49.6 50.7 57.1 88.5 3.1 15.5 3.1 37.7 -0.1 52.5 -6.3 28.9 -18.7 51.7 -39.6 72.5 -11.3 11.4 -23.9 20.7 -36.8 27.2 -9.5 4.7 -28.3 10.9 -39.2 12.8 -9.1 1.6 -30.1 2.7 -36.5 1.9z m42.3 -31.8 c1.8 -0.7 4.3 -2.6 5.7 -4.1 l2.5 -2.7 0.3 -28.8 0.3 -28.8 -3.4 -3.6 -3.4 -3.6 -46.5 0 c-44.7 0 -46.6 0.1 -49 2 -4.6 3.6 -4.9 5.8 -4.6 34.1 0.3 28.5 0.8 31.2 6.1 34 4.4 2.4 8.9 2.7 48.5 2.8 32.1 0.1 40.9 -0.2 43.5 -1.3z m51.6 -9.3 c2.1 -1.8 2.1 -2.3 1.9 -27.3 l-0.3 -25.4 -2.7 -1.5 c-3.2 -1.8 -2.7 -2.1 -21.5 10.2 l-12.3 7.9 0 9.8 0 9.7 8.8 5.8 c19.5 13.1 22 14.1 26.1 10.8z m-143.9 -78.8 c3.2 -1.7 3.6 -2.5 4.5 -11 0.6 -5.3 1.5 -10.3 3.1 -15.6 0.4 -1.5 -1.1 -1.6 -15.3 -1.2 -17.4 0.5 -21 1.5 -27.5 7.2 -4 3.5 -8.8 12.1 -8.8 15.9 0 1.3 0.5 3.2 1 4.3 1 1.8 2.3 1.9 20.6 1.9 15.3 0 20.1 -0.3 22.4 -1.5z m111 -8.5 c0 -13.2 -4.3 -24.1 -12.6 -32 -3 -2.8 -7.5 -6 -10.1 -7.2 -5.8 -2.6 -22.9 -4.1 -36.2 -3.1 -7.9 0.5 -10.5 1.1 -16.1 4 -12 5.9 -19.2 16.4 -20.8 29.9 -0.7 5.5 -0.8 12.5 -0.3 14.2 0.1 0.1 21.7 0.2 48.1 0.2 l48 0 0 -6z m57 3.8 c0 -3.9 -4.5 -12.2 -8.5 -15.7 -6.8 -6 -10.3 -6.9 -27.3 -7.3 -15 -0.3 -15.3 -0.3 -14.7 1.7 1.8 5.4 3.5 14.5 3.5 18.8 l0 4.7 23.5 0 23.5 0 0 -2.2z m-172.3 -32.3 c14.2 -4.2 21.3 -17.5 17.1 -31.9 -1.6 -5.5 -9.9 -13.8 -15.4 -15.4 -11.9 -3.5 -23.6 0.9 -29.5 11.3 -2.4 4.2 -2.9 6.1 -2.9 11.8 0 7.9 1.8 12.8 6.3 17.5 3.7 3.9 7.1 5.9 12.4 7.1 5.5 1.3 6.4 1.3 12 -0.4z m151.3 -1.8 c15.2 -7.8 17.3 -29.6 4 -40.9 -6.3 -5.5 -14.6 -7.1 -23.5 -4.7 -5.4 1.5 -13.9 10 -15.4 15.4 -2.7 9.8 0 20.6 6.7 26.9 7.1 6.6 19 8 28.2 3.3z m-76.9 -22.1 c14.5 -3.4 25.1 -15.3 26.6 -30 1.2 -12 -6.2 -26.3 -16.9 -32.4 -14.2 -8.1 -30.8 -5.5 -41.8 6.5 -6.8 7.5 -9.3 14.5 -8.8 24.8 0.5 9.6 2.9 15.4 9.3 21.9 4.9 5.1 8.3 7.1 15.7 9 6.7 1.9 9 1.9 15.9 0.2z"/>
  <path d="M402 357.8 c-5.7 -3 -8.2 -6.5 -8.8 -12.7 -0.6 -6.2 0.9 -10.1 5.4 -14.1 6.3 -5.5 15.1 -5 21.3 1.4 9.7 10 2.1 27.5 -11.9 27.6 -0.9 0 -3.6 -1 -6 -2.2z"/>
  <path d="M192 243.8 c0 -1.2 7.4 -27.4 8.6 -30.8 0.4 -0.8 2.5 5 4.8 13 2.4 8 4.6 15.5 5 16.6 0.6 2.1 0.4 2.2 -8.9 2.3 -7.2 0.1 -9.5 -0.1 -9.5 -1.1z"/>
  <path d="M513 233 l0 -26 7.7 0 c10.7 0 15.3 2.3 18.7 9.3 3.2 6.6 4.2 16.2 2.6 25.5 -2.2 13.2 -7.1 17.2 -20.7 17.2 l-8.3 0 0 -26z"/>
  <path d="M590.4 242.8 c0.3 -1.3 2.6 -8.9 4.9 -17 l4.3 -14.8 4.4 15.3 c2.4 8.3 4.7 16 5.2 17 0.8 1.6 0.1 1.7 -9.3 1.7 -10 0 -10.1 0 -9.5 -2.2z"/>
 </g>
</svg>